{"glyphs":{"0":{"ha":622,"x_min":57,"x_max":577,"o":"m 57 382 q 151 635 57 542 q 285 695 210 695 l 318 695 q 335 695 323 695 q 353 696 347 696 q 447 679 408 696 q 510 634 487 661 q 548 565 534 608 q 569 482 563 522 q 577 387 574 442 q 522 141 577 250 q 387 13 467 33 q 311 2 346 2 q 216 20 259 2 q 145 65 173 37 q 97 130 117 94 q 69 204 77 167 q 60 279 60 241 q 59 342 60 314 q 57 382 57 371 m 119 374 q 124 306 119 335 q 144 250 130 277 q 186 202 159 222 q 253 168 213 181 q 339 155 297 155 q 487 190 412 155 q 504 317 504 250 q 493 432 504 388 q 467 493 481 476 q 427 525 452 511 q 296 557 369 557 q 245 552 275 557 q 158 536 182 546 q 119 481 119 519 q 119 457 119 470 q 119 416 119 429 l 119 374 z "},"1":{"ha":399,"x_min":26,"x_max":335,"o":"m 26 492 l 26 631 q 57 648 31 644 q 132 664 84 652 q 221 700 180 675 l 335 700 l 335 60 q 306 38 326 44 q 250 32 285 33 q 203 28 216 31 l 203 529 l 136 509 q 45 492 77 492 q 26 492 33 492 z "},"2":{"ha":606,"x_min":37,"x_max":558,"o":"m 37 70 q 52 139 37 94 q 107 167 68 149 q 165 196 146 185 q 225 240 195 215 q 290 300 256 266 q 345 374 323 334 q 368 451 366 414 q 327 527 366 501 q 229 561 288 553 l 102 525 q 98 557 88 536 q 112 598 104 569 q 125 647 119 627 q 149 684 132 667 q 193 701 166 701 l 198 701 l 311 703 q 412 693 372 703 q 483 660 452 684 l 512 627 q 527 543 527 579 q 473 421 527 477 l 245 185 q 458 205 323 204 l 546 205 q 558 181 558 194 l 524 33 l 48 33 q 37 70 37 46 z "},"3":{"ha":611,"x_min":27,"x_max":573,"o":"m 27 74 q 29 84 27 82 l 72 171 q 87 175 80 175 q 112 166 93 175 q 138 158 130 158 q 216 129 170 141 q 305 117 262 117 q 395 132 347 117 q 420 155 413 145 q 430 178 428 164 q 416 229 430 208 q 379 262 403 250 q 334 281 356 274 q 286 295 311 288 q 249 306 260 301 q 239 320 239 309 q 242 336 242 332 q 288 400 269 372 q 331 465 307 428 q 380 538 355 502 l 123 538 q 117 555 117 545 q 138 637 117 569 l 157 697 l 512 697 q 519 683 519 693 q 515 670 519 678 l 441 545 l 353 404 q 384 398 373 401 q 421 389 395 396 q 464 374 447 382 q 504 353 481 367 q 540 324 526 340 q 563 285 553 308 q 573 235 573 262 q 556 159 573 194 q 513 102 538 123 q 465 68 488 81 q 425 51 442 55 q 248 15 347 15 q 35 56 140 15 q 27 74 27 61 z "},"4":{"ha":657,"x_min":43,"x_max":622,"o":"m 43 192 q 71 289 43 254 q 203 471 110 353 l 310 609 q 372 691 340 667 q 460 715 404 715 q 503 691 503 715 l 503 310 l 622 310 l 622 159 l 503 159 l 503 38 l 380 38 l 380 156 l 44 156 q 44 171 44 159 q 43 192 43 183 m 141 310 l 380 310 l 380 614 l 141 310 z "},"5":{"ha":582,"x_min":29,"x_max":530,"o":"m 29 58 q 48 109 29 66 q 83 163 68 151 l 308 115 q 378 126 340 115 q 406 170 402 146 q 387 223 406 193 q 150 264 313 264 l 93 264 l 93 573 l 93 595 l 93 618 q 95 637 93 631 q 105 650 98 642 q 319 645 180 650 q 490 640 459 640 q 515 630 511 644 q 513 610 515 623 q 511 593 511 597 q 509 578 510 588 q 506 565 507 568 q 504 554 505 561 q 501 544 503 547 q 497 536 499 541 q 493 528 495 531 q 487 522 490 525 q 481 515 484 519 l 406 515 l 146 526 q 143 486 143 505 q 142 456 142 475 l 142 420 q 146 385 146 399 q 302 402 224 402 q 479 356 419 402 q 530 224 530 305 q 527 183 530 205 q 506 127 523 161 q 463 67 490 93 q 382 22 435 41 q 260 3 330 3 q 36 45 153 3 q 29 58 29 50 z "},"6":{"ha":607,"x_min":50,"x_max":578,"o":"m 50 256 q 59 316 50 286 q 133 478 73 393 l 252 644 q 291 699 278 687 q 327 711 304 711 l 359 711 q 392 712 370 711 q 457 705 424 712 l 340 562 l 233 427 q 287 445 257 435 q 332 461 317 456 q 366 470 347 466 q 402 473 385 473 q 473 459 441 473 q 524 423 505 445 q 555 374 543 401 q 573 323 568 347 q 578 279 578 300 l 578 267 q 577 239 578 246 q 568 210 576 233 q 463 72 539 125 q 290 18 387 18 q 213 28 270 18 q 104 104 159 38 q 50 256 50 170 m 169 305 q 172 276 169 291 q 185 242 175 261 q 211 207 195 222 q 255 178 227 191 q 321 162 283 165 q 351 161 332 162 q 380 161 369 161 l 382 161 q 401 161 393 161 q 422 167 409 162 q 445 180 436 172 q 461 205 454 188 q 468 246 468 222 q 448 314 468 285 q 398 357 429 342 q 337 377 367 371 q 280 384 308 384 q 193 364 218 384 q 169 305 169 344 z "},"7":{"ha":506,"x_min":16,"x_max":507,"o":"m 16 545 q 18 561 16 552 l 60 684 l 507 684 l 315 132 q 289 47 296 65 q 267 13 281 29 q 135 22 218 13 q 134 27 135 24 q 133 33 133 31 q 146 70 133 43 q 210 186 160 96 q 241 243 229 222 l 335 416 q 395 530 387 513 l 26 530 q 16 545 16 530 z "},"8":{"ha":606,"x_min":56,"x_max":564,"o":"m 56 220 q 82 313 56 269 q 155 375 109 356 q 79 519 79 422 q 144 658 79 602 q 311 714 208 714 q 454 680 399 714 q 509 588 509 645 q 485 491 509 533 q 418 422 460 448 q 446 411 425 417 q 484 395 466 404 q 522 371 503 387 q 552 326 541 356 q 564 255 564 296 q 548 169 564 212 q 502 91 532 127 q 421 33 471 55 q 311 10 372 10 q 239 19 275 10 q 170 46 203 28 q 112 88 137 64 q 71 147 86 113 q 56 220 56 181 m 146 263 q 168 201 146 231 q 224 157 190 172 q 369 128 290 128 q 419 144 399 130 q 444 172 439 159 q 449 195 449 185 q 428 248 449 222 q 369 287 406 273 l 200 351 q 146 263 146 314 m 178 571 q 198 525 178 551 q 243 486 218 498 q 371 440 291 461 q 418 515 414 465 q 402 564 418 543 q 362 595 387 585 q 317 609 338 605 q 278 614 296 614 q 182 586 200 614 q 178 571 178 581 z "},"9":{"ha":563,"x_min":44,"x_max":531,"o":"m 44 468 q 114 644 44 569 q 288 720 183 720 q 459 646 388 720 q 531 473 531 572 q 519 397 531 429 q 455 280 508 366 l 311 39 q 171 19 253 19 q 143 21 153 19 q 138 31 132 24 q 250 157 201 96 l 348 281 q 271 256 292 261 q 226 250 250 250 q 161 264 208 250 q 129 282 148 267 q 91 322 111 298 q 58 386 71 347 q 44 468 44 425 m 143 548 q 151 494 143 541 q 170 449 155 475 q 211 397 185 424 q 277 353 236 371 q 364 335 318 335 q 413 429 413 366 q 408 468 413 448 q 390 510 404 488 q 357 551 377 533 q 302 580 336 568 q 224 592 267 592 q 160 578 176 592 q 143 548 143 561 z "},"\u0000":{"ha":1389,"x_min":0,"x_max":0,"o":""},"\r":{"ha":463,"x_min":0,"x_max":0,"o":""}," ":{"ha":355,"x_min":0,"x_max":0,"o":""},"!":{"ha":300,"x_min":66,"x_max":229,"o":"m 66 636 l 155 770 l 229 628 l 157 243 l 111 245 l 66 636 m 76 81 l 138 165 l 201 79 l 137 0 l 76 81 z "},"\"":{"ha":490,"x_min":68,"x_max":423,"o":"m 68 570 q 71 592 68 582 q 75 652 72 615 q 92 771 79 689 q 121 897 105 853 q 170 919 136 919 q 205 911 190 919 q 226 861 226 890 q 205 799 226 840 q 184 748 184 757 q 149 665 165 706 q 126 605 133 625 q 111 570 119 586 q 98 548 104 553 q 82 543 92 543 q 68 570 68 551 m 264 570 q 269 633 266 594 q 286 759 272 671 q 318 897 299 846 q 367 919 334 919 q 403 911 388 919 q 423 861 423 888 q 402 799 423 842 q 380 748 381 755 q 344 663 361 705 q 321 602 328 621 q 307 568 314 583 q 293 548 299 552 q 277 543 287 543 q 264 570 264 551 z "},"#":{"ha":679,"x_min":68,"x_max":612,"o":"m 68 302 l 68 368 l 197 368 l 216 507 l 94 507 l 94 576 l 222 576 l 258 792 l 326 792 l 292 576 l 430 576 l 464 792 l 532 792 l 500 576 l 612 576 l 612 507 l 491 507 l 473 368 l 585 368 l 585 302 l 464 302 l 430 67 l 361 67 l 394 302 l 249 302 l 216 67 l 144 67 l 180 302 l 68 302 m 265 368 l 404 368 l 421 507 l 283 507 l 265 368 z "},"$":{"ha":611,"x_min":68,"x_max":544,"o":"m 68 71 q 99 172 68 124 q 111 172 105 178 q 197 111 164 130 q 276 77 230 92 l 276 321 q 181 383 220 352 q 122 436 142 414 q 92 485 103 459 q 80 524 81 511 q 78 557 78 538 q 110 663 78 619 q 191 719 142 707 q 273 739 227 730 q 273 761 273 739 q 284 783 273 776 q 308 790 294 790 q 319 789 313 790 q 327 772 327 785 q 327 765 327 770 q 326 755 326 760 q 325 743 324 744 q 399 727 342 736 q 481 710 456 718 q 496 696 496 701 q 465 596 496 636 q 396 639 443 604 q 327 686 350 674 l 327 456 q 385 428 357 443 q 442 391 412 414 q 494 344 472 368 q 530 287 515 319 q 544 218 544 254 q 524 133 544 172 q 471 70 504 94 q 399 32 439 45 q 319 18 359 18 q 324 -5 324 2 q 313 -23 324 -16 q 291 -30 302 -30 q 276 -25 282 -30 q 271 -14 271 -21 q 273 10 273 1 q 273 13 273 12 q 273 16 273 15 q 210 25 253 20 q 134 36 167 30 q 78 52 100 42 q 68 71 68 61 m 175 604 q 206 529 175 558 q 276 494 237 500 l 276 691 q 196 652 217 670 q 175 604 175 635 m 330 69 q 383 87 361 75 q 416 115 406 100 q 430 144 426 131 q 434 169 434 157 q 416 229 434 201 q 358 286 399 256 l 330 297 l 330 69 z "},"%":{"ha":1061,"x_min":68,"x_max":993,"o":"m 68 439 q 98 566 68 517 q 159 629 127 614 q 218 644 186 644 q 327 607 286 644 q 378 516 368 570 q 389 401 389 461 q 374 300 389 348 q 334 229 359 253 q 294 200 309 208 q 252 193 279 193 q 165 212 218 193 q 106 260 136 222 q 70 357 76 297 q 69 395 70 369 q 68 439 68 422 m 113 454 q 121 405 113 428 q 151 343 130 381 q 224 307 171 307 l 249 307 q 267 306 256 306 q 300 310 288 306 q 316 318 312 314 q 323 331 319 323 q 337 401 337 363 q 303 504 337 467 q 222 540 269 540 l 201 540 q 195 540 199 540 q 187 540 191 540 q 180 540 183 540 q 143 536 150 540 q 127 514 137 533 q 113 454 113 493 m 323 5 l 427 220 l 635 634 l 716 634 q 623 433 679 545 l 509 202 q 421 5 453 85 l 323 5 m 657 217 q 677 319 657 268 q 723 407 697 381 q 791 439 749 432 q 821 442 802 442 q 945 375 905 442 q 993 203 993 297 q 984 133 993 169 q 958 64 975 96 q 912 11 941 31 q 848 -10 884 -10 q 772 5 815 -10 q 703 50 730 20 q 657 217 657 102 m 710 252 q 722 173 710 229 q 766 118 731 139 q 848 97 802 97 q 911 108 878 97 q 932 193 932 143 q 923 255 932 228 q 901 298 914 283 q 878 321 888 313 q 861 331 868 328 q 801 341 838 341 l 776 341 q 750 336 766 338 q 729 330 735 334 q 719 310 724 325 q 710 252 710 287 z "},"&":{"ha":930,"x_min":68,"x_max":863,"o":"m 68 244 q 189 434 68 345 l 285 496 q 248 661 248 600 q 260 727 248 696 q 292 776 273 757 q 336 808 312 795 q 384 827 361 821 q 426 832 406 832 q 461 828 444 832 q 499 813 479 824 q 534 785 519 802 q 559 740 549 768 q 569 676 569 712 q 516 569 564 616 q 407 496 468 522 l 543 271 l 629 399 q 649 466 649 430 q 631 510 649 495 q 578 530 612 524 l 578 547 l 810 547 l 810 530 q 774 516 783 520 q 751 505 765 513 q 730 489 737 497 q 717 469 724 481 l 578 244 q 577 239 577 241 q 630 179 577 214 q 734 143 682 143 q 836 201 798 143 l 863 184 q 830 142 846 160 q 791 102 815 123 q 739 68 768 80 q 677 56 709 56 q 509 159 593 56 q 396 90 465 118 q 257 62 328 62 q 203 67 229 62 q 152 85 178 72 q 109 117 127 98 q 79 170 91 137 q 68 244 68 202 m 184 274 q 222 165 184 205 q 323 125 260 125 q 475 192 399 125 l 302 452 q 217 371 250 417 q 184 274 184 324 m 336 676 q 341 624 336 646 q 361 572 347 602 q 378 537 376 542 q 418 561 406 553 q 453 587 431 570 q 484 621 474 605 q 503 660 494 636 q 511 713 511 684 q 492 767 511 746 q 440 787 472 787 q 368 757 399 787 q 336 676 336 727 z "},"'":{"ha":277,"x_min":68,"x_max":209,"o":"m 68 846 l 71 856 l 141 913 l 161 911 q 209 805 209 860 q 172 726 209 768 q 93 659 134 684 q 75 665 81 654 q 85 690 75 677 q 105 719 95 703 q 115 755 115 735 q 99 798 115 773 l 68 846 z "},"(":{"ha":425,"x_min":68,"x_max":358,"o":"m 68 378 l 68 384 q 187 718 68 557 q 315 861 238 791 l 340 843 q 256 692 288 778 q 212 533 223 606 q 201 388 201 460 q 225 175 201 275 q 278 20 249 75 q 326 -60 306 -36 l 358 -102 l 342 -122 q 318 -113 330 -120 q 296 -98 307 -106 q 281 -87 285 -89 q 205 2 240 -45 q 137 108 170 49 q 86 237 105 167 q 68 378 68 307 z "},")":{"ha":414,"x_min":68,"x_max":347,"o":"m 68 -105 q 93 -56 71 -90 l 138 22 q 190 176 163 71 q 216 392 216 280 q 152 698 216 565 q 114 775 141 732 l 73 841 l 79 863 q 89 872 83 872 q 125 846 98 872 l 199 764 q 238 711 217 743 q 285 626 258 680 q 329 499 312 572 q 347 349 347 426 q 333 239 347 292 q 286 110 319 185 q 94 -115 208 -35 l 68 -105 z "},"*":{"ha":578,"x_min":69,"x_max":510,"o":"m 69 632 q 83 686 69 650 q 111 742 98 721 l 129 738 l 253 661 q 264 667 257 662 q 275 673 272 671 q 221 812 252 722 q 231 831 221 821 q 289 838 260 838 q 314 837 307 838 q 355 832 327 837 l 359 828 q 345 773 355 805 q 332 732 334 742 l 332 730 q 322 702 332 722 q 313 678 313 681 q 332 657 313 666 l 467 747 q 503 663 485 729 q 505 646 500 658 q 510 628 510 633 l 507 618 l 345 618 l 334 597 l 456 499 q 458 488 458 493 q 457 482 458 485 q 453 476 456 479 q 449 471 451 473 q 442 465 447 469 q 435 459 437 461 q 425 453 432 458 q 415 447 418 449 q 383 426 396 433 q 365 417 370 418 q 350 415 359 416 q 322 490 333 450 l 300 574 q 285 577 296 577 q 252 493 277 551 q 226 425 228 435 q 216 418 221 418 q 196 425 201 422 l 116 479 l 116 499 q 179 549 144 524 l 248 602 q 243 620 248 617 l 82 620 q 77 619 81 619 q 69 632 69 619 z "},"+":{"ha":760,"x_min":68,"x_max":692,"o":"m 68 254 l 68 333 l 341 333 l 341 616 l 416 616 l 416 333 l 692 333 l 692 254 l 416 254 l 416 -29 l 341 -29 l 341 254 l 68 254 z "},",":{"ha":273,"x_min":68,"x_max":205,"o":"m 68 25 l 68 43 q 85 55 71 44 q 107 73 99 66 l 142 101 q 148 102 144 102 q 153 101 151 102 q 159 97 156 100 q 164 93 161 95 q 169 85 166 90 q 175 77 172 81 q 182 65 178 73 q 191 52 187 57 q 205 -5 205 32 q 150 -107 205 -47 q 85 -159 120 -141 q 68 -150 73 -161 q 90 -109 69 -135 q 111 -60 111 -83 q 94 -13 111 -35 l 68 25 z "},"-":{"ha":534,"x_min":68,"x_max":467,"o":"m 68 334 q 90 398 68 353 q 131 452 113 444 q 152 458 151 458 l 434 458 q 451 454 445 456 q 462 445 456 452 q 467 427 467 438 q 460 393 467 414 q 420 313 453 368 l 395 294 l 105 294 q 80 299 88 294 q 70 313 71 305 q 68 334 68 320 z "},".":{"ha":264,"x_min":68,"x_max":197,"o":"m 68 24 l 133 108 l 197 24 l 133 -62 l 68 24 z "},"/":{"ha":633,"x_min":68,"x_max":566,"o":"m 68 -78 l 73 -58 q 259 263 168 87 l 441 636 q 511 657 456 657 q 543 656 524 657 l 566 651 q 551 630 559 640 l 511 566 q 310 191 408 397 l 197 -52 q 113 -81 167 -81 q 90 -79 98 -81 l 68 -78 z "},":":{"ha":264,"x_min":68,"x_max":197,"o":"m 68 153 l 133 237 l 197 153 l 133 66 l 68 153 m 68 612 l 133 696 l 197 612 l 133 526 l 68 612 z "},";":{"ha":274,"x_min":68,"x_max":206,"o":"m 68 149 l 68 161 l 142 220 l 144 220 q 163 211 154 220 q 191 176 173 201 q 206 114 206 155 q 204 92 206 101 q 188 60 201 82 q 147 10 174 39 q 89 -38 121 -20 q 73 -32 73 -38 q 95 18 79 -7 q 111 65 111 43 q 102 101 111 84 q 68 149 93 119 m 68 589 l 133 673 l 197 589 l 133 503 l 68 589 z "},"<":{"ha":711,"x_min":68,"x_max":643,"o":"m 68 297 l 68 368 l 643 623 l 643 538 l 172 331 l 643 111 l 643 28 l 68 297 z "},"=":{"ha":769,"x_min":68,"x_max":702,"o":"m 68 180 l 68 254 l 702 254 l 702 180 l 68 180 m 68 368 l 68 441 l 702 441 l 702 368 l 68 368 z "},">":{"ha":711,"x_min":68,"x_max":643,"o":"m 68 28 l 68 111 l 538 319 l 68 538 l 68 623 l 643 352 l 643 282 l 68 28 z "},"?":{"ha":355,"x_min":63,"x_max":300,"o":"m 63 551 q 65 577 63 552 q 67 602 67 602 q 74 641 67 620 q 92 675 81 662 q 129 702 107 690 q 165 715 150 715 q 248 665 196 715 q 300 568 300 614 q 284 522 300 546 q 245 473 269 498 q 214 431 222 447 l 214 317 q 182 306 186 305 l 172 314 l 172 447 l 195 493 q 203 526 203 511 q 184 573 203 551 q 132 608 165 595 q 121 600 121 606 q 131 545 131 548 q 123 516 131 527 q 106 505 116 505 l 103 505 q 70 518 77 509 q 63 551 63 526 m 121 157 l 189 241 l 252 157 l 189 70 l 121 157 z "},"@":{"ha":1046,"x_min":68,"x_max":979,"o":"m 68 304 q 156 566 68 460 q 261 670 206 627 q 359 736 315 713 q 454 771 404 758 q 534 786 504 783 q 602 789 565 789 q 886 661 793 789 q 979 388 979 532 q 978 368 979 378 q 977 351 977 357 q 907 191 977 298 q 740 83 838 83 q 683 89 707 83 q 644 108 660 95 q 621 131 629 121 q 602 160 613 141 q 536 103 576 125 q 448 80 496 80 q 357 109 391 80 q 319 170 323 137 q 313 216 314 211 l 313 240 l 313 249 q 401 475 313 372 q 555 555 467 555 q 622 538 595 555 q 669 489 648 521 l 679 539 l 774 539 l 687 169 q 747 132 711 132 q 805 154 774 132 q 862 213 836 176 q 905 305 888 250 q 922 418 922 359 q 879 550 911 491 q 800 647 846 610 q 697 704 753 684 q 583 724 642 724 q 485 717 566 724 q 405 690 450 713 q 316 629 359 666 q 238 538 273 591 q 191 428 203 484 q 165 277 165 326 q 283 20 165 117 q 565 -80 400 -80 q 808 -12 695 -80 l 827 -56 q 528 -131 673 -131 q 374 -107 447 -131 q 246 -42 301 -83 q 151 55 191 0 q 89 174 110 110 q 68 304 68 237 m 420 246 q 434 166 420 199 q 480 134 448 134 q 635 332 609 158 q 646 410 646 376 q 583 506 646 494 q 550 495 570 506 q 507 460 530 484 q 466 408 485 437 q 433 335 446 378 q 420 246 420 292 z "},"[":{"ha":404,"x_min":68,"x_max":336,"o":"m 68 -236 l 68 747 l 331 747 l 331 700 l 201 700 l 201 -194 l 336 -194 l 336 -236 l 68 -236 z "},"\\":{"ha":488,"x_min":68,"x_max":420,"o":"m 68 861 l 172 861 l 420 83 l 325 83 l 68 861 z "},"]":{"ha":402,"x_min":68,"x_max":335,"o":"m 68 -194 l 201 -194 l 201 705 l 71 705 l 71 747 l 335 747 l 335 -235 l 68 -235 l 68 -194 z "},"^":{"ha":620,"x_min":68,"x_max":552,"o":"m 68 435 l 275 893 l 345 893 l 552 435 l 474 435 l 309 805 l 146 435 l 68 435 z "},"_":{"ha":808,"x_min":68,"x_max":741,"o":"m 68 -305 l 741 -305 l 741 -378 l 68 -378 l 68 -305 z "}," ":{"ha":355,"x_min":0,"x_max":0,"o":""},"­":{"ha":534,"x_min":68,"x_max":467,"o":"m 68 334 q 90 398 68 353 q 131 452 113 444 q 152 458 151 458 l 434 458 q 451 454 445 456 q 462 445 456 452 q 467 427 467 438 q 460 393 467 414 q 420 313 453 368 l 395 294 l 105 294 q 80 299 88 294 q 70 313 71 305 q 68 334 68 320 z "},"֑":{"ha":0,"x_min":0,"x_max":0,"o":""},"֒":{"ha":0,"x_min":0,"x_max":0,"o":""},"֓":{"ha":0,"x_min":0,"x_max":0,"o":""},"֔":{"ha":0,"x_min":0,"x_max":0,"o":""},"֕":{"ha":0,"x_min":0,"x_max":0,"o":""},"֖":{"ha":0,"x_min":0,"x_max":0,"o":""},"֗":{"ha":0,"x_min":0,"x_max":0,"o":""},"֘":{"ha":0,"x_min":0,"x_max":0,"o":""},"֙":{"ha":0,"x_min":0,"x_max":0,"o":""},"֚":{"ha":0,"x_min":0,"x_max":0,"o":""},"֛":{"ha":0,"x_min":0,"x_max":0,"o":""},"֜":{"ha":0,"x_min":0,"x_max":0,"o":""},"֝":{"ha":0,"x_min":0,"x_max":0,"o":""},"֞":{"ha":0,"x_min":0,"x_max":0,"o":""},"֟":{"ha":0,"x_min":0,"x_max":0,"o":""},"֠":{"ha":0,"x_min":0,"x_max":0,"o":""},"֡":{"ha":0,"x_min":0,"x_max":0,"o":""},"֢":{"ha":0,"x_min":0,"x_max":0,"o":""},"֣":{"ha":0,"x_min":0,"x_max":0,"o":""},"֤":{"ha":0,"x_min":0,"x_max":0,"o":""},"֥":{"ha":0,"x_min":0,"x_max":0,"o":""},"֦":{"ha":0,"x_min":0,"x_max":0,"o":""},"֧":{"ha":0,"x_min":0,"x_max":0,"o":""},"֨":{"ha":0,"x_min":0,"x_max":0,"o":""},"֩":{"ha":0,"x_min":0,"x_max":0,"o":""},"֪":{"ha":0,"x_min":0,"x_max":0,"o":""},"֫":{"ha":0,"x_min":0,"x_max":0,"o":""},"֬":{"ha":0,"x_min":0,"x_max":0,"o":""},"֭":{"ha":0,"x_min":0,"x_max":0,"o":""},"֮":{"ha":0,"x_min":0,"x_max":0,"o":""},"֯":{"ha":0,"x_min":0,"x_max":0,"o":""},"ְ":{"ha":0,"x_min":0,"x_max":0,"o":""},"ֱ":{"ha":0,"x_min":0,"x_max":0,"o":""},"ֲ":{"ha":0,"x_min":0,"x_max":0,"o":""},"ֳ":{"ha":0,"x_min":0,"x_max":0,"o":""},"ִ":{"ha":0,"x_min":0,"x_max":0,"o":""},"ֵ":{"ha":0,"x_min":0,"x_max":0,"o":""},"ֶ":{"ha":0,"x_min":0,"x_max":0,"o":""},"ַ":{"ha":0,"x_min":0,"x_max":0,"o":""},"ָ":{"ha":0,"x_min":0,"x_max":0,"o":""},"ֹ":{"ha":0,"x_min":0,"x_max":0,"o":""},"ֺ":{"ha":0,"x_min":0,"x_max":0,"o":""},"ֻ":{"ha":0,"x_min":0,"x_max":0,"o":""},"ּ":{"ha":0,"x_min":0,"x_max":0,"o":""},"ֽ":{"ha":0,"x_min":0,"x_max":0,"o":""},"־":{"ha":355,"x_min":0,"x_max":0,"o":""},"ֿ":{"ha":0,"x_min":0,"x_max":0,"o":""},"׀":{"ha":0,"x_min":0,"x_max":0,"o":""},"ׁ":{"ha":0,"x_min":0,"x_max":0,"o":""},"ׂ":{"ha":0,"x_min":0,"x_max":0,"o":""},"׃":{"ha":0,"x_min":0,"x_max":0,"o":""},"ׄ":{"ha":0,"x_min":-106,"x_max":106,"o":"m -106 1171 q -57 1229 -85 1198 q -3 1280 -35 1252 q 54 1227 26 1256 q 106 1168 85 1195 q 52 1116 73 1139 q 3 1061 29 1095 q -49 1118 -20 1088 q -106 1171 -75 1145 z "},"ׅ":{"ha":0,"x_min":0,"x_max":0,"o":""},"׆":{"ha":0,"x_min":0,"x_max":0,"o":""},"ׇ":{"ha":0,"x_min":0,"x_max":0,"o":""},"א":{"ha":785,"x_min":49,"x_max":766,"o":"m 49 779 q 182 680 89 747 q 344 554 275 613 q 473 422 414 494 q 562 476 562 444 q 559 487 562 479 q 521 533 547 512 q 472 564 495 553 q 427 583 448 574 q 401 594 405 591 q 444 632 415 608 q 489 672 472 656 q 520 715 506 688 q 535 770 535 741 q 530 807 535 788 q 595 727 557 766 q 661 666 633 688 q 709 617 689 643 q 730 569 730 591 q 726 548 730 559 q 719 524 724 535 q 709 503 714 512 q 693 483 704 493 q 676 466 683 473 q 653 450 669 459 q 630 435 638 440 q 604 422 623 431 q 578 409 585 413 q 549 396 570 406 q 521 384 528 387 q 567 335 542 363 q 606 292 593 307 q 645 262 620 277 q 701 237 669 246 q 710 235 706 235 q 728 242 719 235 q 748 263 736 250 q 766 281 760 276 q 755 118 755 215 q 764 22 755 67 q 713 0 755 0 q 606 53 657 20 q 508 132 554 87 q 422 219 462 176 q 332 319 383 262 q 240 414 281 375 l 195 241 q 237 231 210 237 q 280 220 264 224 q 317 208 295 216 q 354 190 340 199 q 381 164 368 180 q 404 127 395 148 q 416 70 416 100 q 410 28 416 50 q 399 -7 404 7 q 380 -45 395 -20 q 362 -76 366 -71 q 342 -107 359 -81 q 332 -78 337 -95 q 322 -47 328 -61 q 309 -20 317 -34 q 301 -12 306 -15 q 289 -5 296 -8 q 277 0 281 -3 l 69 0 l 174 463 l 69 527 q 74 587 74 555 q 70 646 74 616 q 59 720 66 677 q 49 779 52 763 z "},"ב":{"ha":809,"x_min":58,"x_max":787,"o":"m 58 237 l 647 237 l 647 475 l 92 475 q 97 553 97 519 q 90 635 97 602 q 66 713 83 669 l 123 713 l 123 858 q 104 877 112 863 q 97 906 97 890 q 108 942 97 927 q 136 956 119 956 q 162 942 151 956 q 174 906 174 927 q 149 858 174 871 l 149 713 l 693 713 l 750 749 q 739 730 747 744 q 727 709 731 717 q 718 688 723 702 q 711 658 713 673 l 711 237 q 739 246 728 241 q 761 259 750 251 q 776 270 772 267 l 787 271 q 776 225 776 244 q 768 100 768 151 q 776 0 768 44 l 62 0 q 82 100 82 32 l 82 125 q 78 158 82 140 q 68 201 75 176 q 58 237 61 226 z "},"ג":{"ha":477,"x_min":25,"x_max":452,"o":"m 25 2 q 62 261 62 133 q 223 222 141 222 q 315 237 272 222 l 258 475 l 147 475 q 155 581 155 528 q 142 712 155 648 l 170 712 l 142 812 q 116 861 116 824 q 128 897 116 882 q 155 911 140 911 q 182 897 171 911 q 193 861 193 882 q 168 812 193 827 q 168 810 168 812 q 181 763 168 798 q 205 712 194 728 l 261 712 l 261 857 q 242 876 250 863 q 235 905 235 888 q 246 940 235 926 q 273 955 257 955 q 300 940 289 955 q 311 905 311 926 q 286 857 311 869 l 286 712 l 340 712 q 355 746 349 731 q 364 781 360 761 q 370 806 368 801 q 343 854 343 817 q 355 890 343 875 q 382 905 366 905 q 409 890 397 905 q 420 854 420 875 q 413 825 420 838 q 395 807 406 812 l 372 712 l 387 712 q 378 621 378 675 q 381 547 378 595 q 383 475 383 498 l 309 475 l 452 109 l 408 -41 l 343 173 q 328 186 338 186 q 325 185 326 186 q 292 163 305 185 q 279 104 279 141 q 258 32 279 62 q 196 2 238 2 l 25 2 z "},"ד":{"ha":824,"x_min":58,"x_max":780,"o":"m 58 475 q 71 640 71 570 q 61 781 71 718 q 97 728 73 745 q 149 712 121 712 l 149 857 q 131 876 138 863 q 123 905 123 889 q 134 941 123 926 q 161 956 145 956 q 189 941 178 956 q 199 905 199 926 q 175 857 199 869 l 175 712 l 738 712 q 748 737 743 716 q 759 776 754 758 q 766 795 764 795 q 768 793 768 795 q 769 780 768 791 q 771 753 770 769 q 772 723 772 736 q 770 694 772 707 l 770 475 l 659 475 q 707 380 673 441 q 761 268 741 319 q 780 160 780 216 q 742 71 780 117 q 644 -14 704 25 l 572 475 l 58 475 z "},"ה":{"ha":829,"x_min":64,"x_max":810,"o":"m 64 140 q 68 210 64 179 q 77 258 73 240 q 94 298 81 277 q 113 328 106 319 q 140 359 120 336 l 140 239 l 273 239 q 264 143 264 187 q 282 0 264 73 l 132 0 q 97 16 111 3 q 76 48 83 28 q 67 90 69 68 q 64 140 64 111 m 64 475 q 77 640 77 575 q 69 759 77 705 q 149 712 100 718 l 149 857 q 130 876 137 863 q 122 905 122 889 q 133 941 122 926 q 161 956 144 956 q 188 941 176 956 q 199 905 199 926 q 192 876 199 889 q 174 857 185 863 l 174 711 l 776 711 l 776 475 l 688 475 q 737 381 703 439 q 791 274 771 323 q 810 168 810 224 q 769 73 810 124 q 668 -16 727 22 l 601 475 l 64 475 z "},"ו":{"ha":337,"x_min":58,"x_max":298,"o":"m 58 474 q 70 624 70 541 q 60 781 70 696 q 123 712 90 732 l 250 712 q 296 646 296 712 q 297 510 296 591 q 298 378 298 429 q 293 233 298 290 q 269 100 287 176 q 244 39 261 66 q 208 0 228 12 l 208 474 l 58 474 z "},"ז":{"ha":373,"x_min":29,"x_max":334,"o":"m 29 861 q 41 897 29 882 q 68 911 52 911 q 95 897 83 911 q 106 861 106 882 q 83 814 106 825 l 81 810 q 95 765 81 799 q 119 712 109 730 l 174 712 l 174 857 q 155 876 163 863 q 148 906 148 889 q 159 941 148 926 q 186 956 170 956 q 213 941 202 956 q 224 906 224 926 q 199 857 224 871 l 199 712 l 253 712 q 266 741 260 727 q 273 764 271 755 q 278 786 275 772 q 283 807 281 800 q 264 825 271 812 q 256 854 256 838 q 268 890 256 876 q 295 905 279 905 q 322 890 311 905 q 334 854 334 876 q 309 807 334 821 l 286 712 l 304 712 q 296 600 296 639 q 303 475 296 536 l 205 475 q 233 267 233 375 q 184 0 233 146 q 136 267 136 146 q 163 475 136 374 l 66 475 q 73 600 73 536 q 66 712 73 660 l 83 712 l 56 814 q 37 832 44 819 q 29 861 29 845 z "},"ח":{"ha":806,"x_min":60,"x_max":772,"o":"m 60 475 q 66 599 66 536 q 62 711 66 675 l 62 818 q 86 758 66 793 q 123 712 107 724 l 256 712 l 418 857 l 576 712 l 707 712 q 755 695 739 712 q 772 650 772 679 l 772 479 l 772 475 l 674 475 q 701 267 701 374 q 653 0 701 146 q 604 267 604 149 q 631 475 604 371 l 534 475 q 538 538 534 496 q 541 600 541 579 l 537 623 l 418 747 l 294 623 q 290 600 290 601 q 297 475 290 536 l 199 475 q 227 267 227 374 q 178 0 227 146 q 130 267 130 146 q 157 475 130 374 l 60 475 z "},"ט":{"ha":808,"x_min":31,"x_max":773,"o":"m 31 855 q 42 891 31 876 q 69 905 54 905 q 96 891 85 905 q 108 855 108 876 q 100 826 108 840 q 82 807 93 813 l 82 804 q 94 763 82 793 q 116 713 105 732 l 176 713 l 176 851 q 157 870 164 857 q 149 899 149 883 q 160 935 149 920 q 188 949 172 949 q 215 935 203 949 q 226 899 226 920 q 201 851 226 864 l 201 712 l 258 712 q 269 739 264 726 q 275 760 273 751 q 280 781 277 768 q 284 800 283 793 q 265 819 273 806 q 258 848 258 831 q 269 884 258 869 q 296 899 281 899 q 323 884 312 899 q 335 848 335 869 q 310 801 335 814 l 289 712 l 304 712 q 298 600 298 639 q 301 538 298 580 q 304 475 304 497 l 221 475 l 221 243 l 618 243 q 677 292 661 267 q 693 361 693 317 q 650 471 693 427 q 541 514 606 514 q 502 506 519 514 q 470 483 484 498 q 445 452 455 467 q 421 414 435 437 q 397 377 407 391 l 397 540 q 440 672 397 631 q 579 713 484 713 q 665 699 629 713 q 721 662 701 684 q 753 603 741 639 q 769 533 766 568 q 773 454 773 499 q 767 332 773 386 q 745 226 761 278 q 716 143 729 174 q 677 50 704 111 q 597 0 659 16 l 156 0 l 156 474 l 67 474 q 71 538 67 496 q 74 600 74 580 q 67 712 74 651 l 82 712 l 57 807 q 38 825 45 812 q 31 855 31 838 z "},"י":{"ha":334,"x_min":41,"x_max":306,"o":"m 41 812 l 60 809 q 106 712 77 736 l 239 712 q 274 696 260 709 q 294 664 288 684 q 303 623 301 644 q 306 572 306 602 q 266 381 306 464 q 178 267 227 298 q 196 311 184 284 q 214 353 208 337 q 226 393 220 368 q 231 445 231 418 q 224 466 231 456 q 205 475 216 475 l 123 475 q 110 470 117 475 q 97 457 104 466 q 86 440 91 448 q 74 420 81 433 q 63 404 66 408 l 78 475 q 87 569 87 521 q 69 712 87 640 l 41 812 z "},"ך":{"ha":734,"x_min":54,"x_max":686,"o":"m 54 475 q 68 618 68 554 q 61 712 68 668 l 572 712 q 630 698 606 712 q 665 660 654 684 q 681 612 677 635 q 686 563 686 589 l 686 -560 q 634 -368 654 -489 q 605 -136 613 -248 q 585 128 597 -24 q 560 373 573 279 q 554 397 557 381 q 548 424 551 414 q 537 445 545 433 q 515 464 530 457 q 477 475 500 471 l 54 475 z "},"כ":{"ha":797,"x_min":37,"x_max":759,"o":"m 37 0 q 100 197 100 91 q 99 217 100 203 q 98 237 98 231 l 583 237 q 656 274 625 243 q 687 354 687 305 q 583 475 687 443 l 78 475 q 100 583 100 534 q 70 712 100 644 l 527 712 q 595 693 556 712 q 671 643 635 673 q 733 566 708 612 q 759 475 759 521 l 759 236 q 741 162 759 199 q 697 97 724 125 q 639 46 670 68 q 578 12 608 24 q 530 0 549 0 l 37 0 z "},"ל":{"ha":790,"x_min":-203,"x_max":756,"o":"m -203 1419 q -195 1403 -202 1417 q -183 1383 -187 1390 q -171 1366 -180 1377 q -154 1349 -161 1354 q -134 1338 -146 1343 q -108 1333 -121 1333 q -92 1371 -92 1347 q -96 1402 -92 1383 q -108 1458 -100 1421 q -122 1527 -116 1494 q -111 1529 -114 1529 q -92 1522 -100 1529 q -52 1331 -52 1402 q 36 1272 18 1331 q 83 996 77 1042 q 105 858 92 929 q 127 713 119 787 l 524 713 q 593 693 553 713 q 669 643 633 674 q 731 567 705 612 q 756 475 756 522 l 756 237 q 739 163 756 200 q 694 98 721 126 q 636 46 667 69 q 576 12 605 24 q 527 0 547 0 l 264 0 q 328 197 328 92 q 327 217 328 203 q 326 238 326 231 l 580 238 q 653 274 622 243 q 684 355 684 306 q 580 475 684 444 l 75 475 q 98 583 98 536 q 91 667 98 617 q 71 755 84 716 l -35 1091 l -159 1091 l -189 1008 q -178 1120 -183 1042 q -173 1241 -173 1199 q -203 1419 -173 1283 z "},"ם":{"ha":814,"x_min":55,"x_max":768,"o":"m 55 475 q 63 517 58 492 q 72 563 68 543 q 75 606 75 583 q 72 641 75 625 q 63 678 68 657 q 55 712 58 699 l 652 712 q 717 688 690 712 q 758 631 745 663 l 768 568 l 768 0 l 147 0 l 147 475 l 55 475 m 212 237 l 680 237 l 680 400 q 672 440 680 425 q 646 463 664 455 q 607 472 628 470 q 552 475 587 475 q 212 475 552 475 l 212 237 z "},"מ":{"ha":844,"x_min":54,"x_max":798,"o":"m 54 494 q 91 640 77 559 q 96 667 93 652 q 100 687 99 682 q 102 705 101 692 q 102 736 102 717 l 159 717 l 251 685 q 294 647 278 673 q 310 593 310 621 q 307 571 310 583 q 340 547 319 547 q 361 556 351 547 q 374 583 370 566 q 344 712 374 644 l 566 712 q 634 693 595 712 q 710 643 674 673 q 772 566 747 612 q 798 475 798 521 l 798 0 l 260 0 q 324 197 324 92 q 321 237 324 219 l 726 237 l 726 354 q 621 475 726 444 l 292 475 q 273 357 282 395 q 251 269 262 310 q 223 176 239 227 q 197 88 208 125 q 155 20 180 54 q 110 -22 130 -14 l 201 467 l 54 494 z "},"ן":{"ha":373,"x_min":32,"x_max":336,"o":"m 32 861 q 43 897 32 882 q 71 911 55 911 q 98 897 86 911 q 109 861 109 882 q 84 812 109 827 q 83 810 83 812 q 97 763 83 798 q 121 712 110 728 l 177 712 l 177 857 q 158 876 165 863 q 151 905 151 888 q 162 940 151 926 q 189 955 173 955 q 216 940 205 955 q 227 905 227 926 q 202 857 227 869 l 202 712 l 256 712 q 271 746 265 731 q 280 781 276 761 q 286 806 284 801 q 259 854 259 817 q 271 890 259 875 q 298 905 282 905 q 325 890 313 905 q 336 854 336 875 q 329 825 336 838 q 311 807 322 812 l 288 712 l 304 712 q 297 600 297 639 q 304 475 297 536 l 206 475 q 233 267 233 374 q 218 -132 233 155 q 184 -475 202 -419 q 151 -135 165 -420 q 137 267 137 150 q 163 475 137 374 l 66 475 q 73 600 73 536 q 66 712 73 660 l 85 712 l 58 812 q 32 861 32 824 z "},"נ":{"ha":460,"x_min":14,"x_max":433,"o":"m 14 0 q 35 37 22 16 q 58 76 48 58 q 75 115 67 94 q 88 154 83 135 q 96 197 92 172 q 104 237 100 221 l 278 237 q 258 345 260 332 q 237 475 243 438 l 132 475 q 137 512 134 490 q 143 551 141 533 q 146 588 146 568 q 143 629 146 610 q 137 672 141 648 q 131 712 133 696 l 146 712 l 119 812 q 100 831 107 818 q 92 861 92 844 q 104 896 92 882 q 131 911 115 911 q 158 896 146 911 q 170 861 170 882 q 146 812 170 825 q 144 809 144 810 q 157 763 144 798 q 181 712 170 729 l 237 712 l 237 857 q 218 875 226 862 q 211 905 211 888 q 222 940 211 926 q 250 955 233 955 q 276 940 265 955 q 288 905 288 926 q 262 857 288 869 l 262 713 l 316 713 q 329 742 323 728 q 336 764 334 755 q 341 785 338 772 q 346 806 344 799 q 327 824 334 811 q 319 854 319 837 q 331 889 319 875 q 358 904 342 904 q 385 889 374 904 q 397 854 397 875 q 372 806 397 819 l 349 712 l 366 712 q 360 672 364 696 q 354 629 356 648 q 351 588 351 610 q 354 551 351 568 q 360 512 356 533 q 366 475 363 490 l 291 475 q 328 392 307 441 q 367 304 349 342 q 408 224 385 267 q 433 126 433 181 q 398 24 433 60 q 386 15 392 18 q 370 7 379 11 q 355 0 361 3 l 14 0 z "},"ס":{"ha":800,"x_min":55,"x_max":768,"o":"m 55 475 q 68 602 68 547 q 55 712 68 657 l 602 712 q 641 708 623 712 q 679 696 659 705 q 714 670 699 687 q 742 627 730 652 q 762 563 755 602 q 768 475 768 524 q 764 394 768 435 q 748 306 760 353 q 720 216 737 258 q 674 133 703 174 q 610 64 646 93 q 523 18 574 35 q 412 0 472 0 q 327 10 366 0 q 261 35 289 20 q 211 76 233 51 q 174 126 189 102 q 150 187 160 151 q 134 251 139 222 q 125 318 128 279 q 122 383 123 357 q 121 446 121 409 l 121 475 l 55 475 m 216 455 q 217 411 216 428 q 220 370 218 394 q 229 330 223 345 q 244 296 235 315 q 269 266 254 277 q 306 244 285 254 q 356 229 326 233 q 422 224 386 224 q 524 237 479 224 q 592 268 568 250 q 632 311 616 287 q 653 355 648 336 q 659 392 659 374 q 645 450 659 430 q 611 475 632 471 l 216 475 q 216 455 216 475 z "},"ע":{"ha":814,"x_min":3,"x_max":787,"o":"m 3 -173 q 10 -146 5 -168 q 17 -117 15 -125 q 22 -92 18 -110 q 27 -62 26 -73 q 30 -34 28 -50 q 31 -3 31 -18 q 26 63 31 33 l 289 151 q 231 475 234 472 l 134 475 q 138 537 134 496 q 141 599 141 578 q 134 711 141 659 l 154 711 l 127 813 q 108 831 115 819 q 100 861 100 844 q 112 897 100 882 q 139 911 123 911 q 166 897 155 911 q 178 861 178 882 q 171 832 178 845 q 153 813 163 819 q 152 810 152 812 q 165 764 152 798 q 189 712 178 729 l 245 712 l 245 857 q 227 876 234 863 q 219 905 219 889 q 230 941 219 926 q 258 956 241 956 q 284 941 273 956 q 296 905 296 926 q 289 876 296 889 q 271 857 282 863 l 271 712 l 324 712 q 337 741 332 727 q 345 764 342 755 q 349 786 347 772 q 354 806 352 800 q 335 825 342 812 q 328 854 328 838 q 339 890 328 876 q 366 905 351 905 q 393 890 382 905 q 405 854 405 876 q 380 807 405 820 l 357 711 l 372 711 q 365 600 365 638 q 372 475 365 536 l 274 475 l 382 181 q 530 241 490 218 q 651 366 605 284 q 692 458 673 405 l 492 519 q 558 630 524 545 q 592 741 592 715 l 724 692 q 787 594 787 669 q 764 421 787 503 q 703 275 741 340 q 604 152 664 211 q 480 50 544 94 q 333 -37 416 5 q 173 -110 249 -79 q 3 -173 98 -140 z "},"ף":{"ha":810,"x_min":64,"x_max":765,"o":"m 64 425 q 81 713 64 568 q 82 743 81 729 q 85 773 83 758 q 89 797 87 788 q 94 823 90 806 q 98 846 97 840 q 119 712 109 750 l 713 712 q 732 693 724 709 q 745 648 740 676 q 752 594 749 620 q 758 531 755 568 q 763 475 761 494 q 764 304 763 418 q 765 135 765 190 q 750 -215 765 -67 q 692 -475 735 -362 q 680 6 692 -313 q 669 478 669 326 l 201 478 q 158 454 173 478 q 144 395 144 430 q 160 327 144 357 q 201 297 176 297 l 348 297 q 336 147 336 230 q 344 96 336 115 q 366 59 351 78 l 283 59 l 125 59 q 97 75 106 59 q 81 125 87 90 q 72 281 81 182 q 64 425 64 380 z "},"פ":{"ha":818,"x_min":23,"x_max":777,"o":"m 23 -237 q 41 -200 30 -221 q 59 -160 52 -178 q 74 -121 67 -142 q 83 -82 80 -101 q 90 -40 87 -64 q 96 0 93 -17 l 593 0 q 643 21 623 0 q 669 66 663 41 q 676 119 676 92 l 600 119 l 600 475 l 182 475 q 156 461 168 475 q 144 418 144 448 q 160 371 144 387 q 193 356 175 356 l 426 356 q 411 254 411 304 q 436 119 411 188 q 217 119 436 119 q 110 173 153 119 q 67 300 67 227 l 67 475 q 75 686 67 571 q 83 847 83 801 l 112 712 l 721 712 l 735 665 q 764 542 755 598 q 772 411 772 485 q 774 274 772 358 q 777 152 777 190 q 770 35 777 74 q 735 -59 762 -3 q 703 -112 722 -87 q 669 -152 685 -136 q 630 -192 653 -168 q 589 -237 606 -216 l 23 -237 z "},"ץ":{"ha":787,"x_min":29,"x_max":762,"o":"m 29 861 q 41 897 29 882 q 68 911 52 911 q 95 897 83 911 q 106 861 106 882 q 99 832 106 845 q 81 813 92 819 q 81 810 81 812 q 94 764 81 798 q 118 712 107 729 l 174 712 l 174 857 q 155 876 163 863 q 148 905 148 889 q 159 941 148 926 q 186 956 170 956 q 213 941 202 956 q 224 905 224 926 q 218 876 224 889 q 199 857 211 863 l 199 712 l 253 712 q 266 741 260 727 q 273 764 271 755 q 278 786 275 772 q 283 806 281 800 q 264 825 271 812 q 256 854 256 838 q 268 890 256 876 q 295 905 279 905 q 322 890 311 905 q 334 854 334 876 q 309 807 334 820 l 286 712 l 306 712 q 298 600 298 639 q 305 475 298 536 l 208 475 q 237 249 237 368 q 347 287 275 249 q 479 371 419 324 q 550 441 539 417 q 554 469 554 452 q 553 486 554 479 q 520 527 553 514 q 446 539 488 539 q 465 564 450 545 q 488 596 479 583 q 503 622 496 609 q 529 727 516 652 q 542 840 542 802 q 549 804 547 829 q 558 762 551 779 q 583 743 565 746 l 730 677 q 762 610 762 648 q 741 523 762 585 q 675 423 726 476 q 560 327 625 370 q 428 246 496 283 q 309 187 361 209 q 235 163 256 165 q 218 -204 235 16 q 184 -475 201 -424 q 152 -134 167 -420 q 138 267 138 152 q 165 475 138 372 l 68 475 q 71 538 68 497 q 75 600 75 579 q 68 712 75 660 l 83 712 l 56 813 q 37 831 44 819 q 29 861 29 844 z "},"צ":{"ha":779,"x_min":37,"x_max":745,"o":"m 37 861 q 48 897 37 882 q 75 911 60 911 q 102 897 91 911 q 114 861 114 882 q 92 814 114 825 q 90 812 92 813 q 88 810 88 810 q 101 764 88 799 q 125 712 115 730 l 182 712 l 182 857 q 163 876 170 863 q 155 906 155 889 q 166 941 155 926 q 194 956 178 956 q 221 941 210 956 q 232 906 232 926 q 207 857 232 871 l 207 712 l 260 712 q 273 741 268 727 q 281 764 279 755 q 286 786 283 772 q 290 807 288 800 q 271 825 279 812 q 264 854 264 838 q 275 890 264 876 q 302 905 287 905 q 330 890 318 905 q 341 854 341 876 q 316 807 341 821 l 293 712 l 310 712 q 302 600 302 639 q 309 475 302 530 l 220 475 q 423 323 220 475 q 556 438 515 392 q 562 459 562 454 q 557 480 562 466 q 495 512 538 512 q 449 502 472 512 q 413 480 425 491 l 461 533 q 525 627 488 566 q 542 658 534 640 q 556 700 549 676 q 566 737 563 724 q 575 778 570 750 q 581 807 581 806 q 585 780 583 799 q 591 749 587 762 q 606 731 595 736 l 710 666 q 745 588 745 629 q 722 518 745 555 q 660 455 702 493 q 558 367 617 416 q 479 298 500 317 q 536 271 502 286 q 591 246 570 256 q 638 221 613 237 q 677 190 663 205 q 702 150 692 174 q 711 95 711 125 q 694 47 711 71 q 659 12 676 23 l 641 0 l 60 0 q 95 104 87 48 q 104 237 104 160 l 422 237 q 289 327 377 248 q 158 475 200 405 l 72 475 q 79 600 79 536 q 73 712 79 658 l 92 712 l 63 814 q 44 832 52 819 q 37 861 37 845 z "},"ק":{"ha":781,"x_min":46,"x_max":743,"o":"m 46 754 l 87 712 l 119 712 l 119 857 q 100 876 107 863 q 92 905 92 889 q 103 941 92 926 q 131 956 115 956 q 158 941 146 956 q 169 905 169 926 q 162 876 169 889 q 144 857 155 863 l 144 712 l 511 712 q 580 693 541 712 q 656 643 619 673 q 718 566 692 612 q 743 475 743 521 l 743 236 q 726 162 743 199 q 681 97 708 125 q 623 46 654 68 q 563 12 592 24 q 514 0 534 0 l 376 0 q 439 195 439 91 q 438 216 439 202 q 437 237 437 231 l 567 237 q 640 274 609 243 q 671 354 671 305 q 641 433 671 404 q 567 475 610 463 l 62 475 q 84 583 84 534 q 73 666 84 613 q 46 754 62 719 m 105 109 q 112 233 112 170 q 105 346 112 294 l 343 346 q 336 234 336 273 q 339 172 336 214 q 342 109 342 130 l 245 109 q 306 -142 296 -87 q 320 -328 320 -226 q 303 -506 320 -434 q 210 -171 251 -364 q 193 10 193 -85 q 203 109 193 71 l 105 109 z "},"ר":{"ha":854,"x_min":56,"x_max":818,"o":"m 56 479 q 61 547 56 506 q 66 616 66 589 q 61 666 66 635 q 56 717 56 697 l 593 717 q 677 700 638 717 q 748 649 716 684 q 799 552 781 614 q 818 406 818 490 q 818 388 818 401 q 817 368 817 375 q 810 258 817 304 q 785 147 803 212 q 762 87 775 115 q 730 25 749 59 q 701 -33 712 -8 q 713 62 705 8 q 727 162 722 117 q 732 257 732 207 l 732 304 q 722 416 732 376 q 697 467 713 455 q 656 479 682 479 l 635 479 l 56 479 z "},"ש":{"ha":842,"x_min":35,"x_max":817,"o":"m 35 861 q 47 897 35 882 q 75 911 58 911 q 101 897 90 911 q 113 861 113 882 q 105 832 113 846 q 88 814 98 819 q 87 810 87 812 q 100 764 87 798 q 125 712 114 729 l 180 712 l 180 857 q 162 876 169 863 q 155 906 155 889 q 165 941 155 926 q 193 956 176 956 q 220 941 209 956 q 231 906 231 926 q 206 857 231 871 l 206 712 l 259 712 q 272 742 267 727 q 279 763 277 756 q 284 786 281 770 q 289 807 288 802 q 270 825 277 812 q 263 854 263 838 q 274 890 263 876 q 301 905 286 905 q 329 890 317 905 q 340 854 340 876 q 315 807 340 821 l 292 712 l 303 712 q 296 600 296 639 q 302 475 296 536 l 214 475 l 290 199 q 354 287 329 250 q 408 382 380 323 q 450 498 437 440 l 326 570 q 398 675 361 612 q 415 722 410 696 q 422 781 420 747 q 428 830 425 814 q 440 822 439 831 q 440 806 440 817 q 439 791 439 796 q 475 718 439 745 l 555 656 q 576 607 576 626 q 575 595 576 600 q 520 431 558 494 q 486 377 504 404 q 445 321 467 350 q 408 273 422 292 q 365 221 393 255 q 326 173 336 186 q 521 229 429 173 q 668 372 612 285 q 706 468 706 440 q 705 482 706 471 l 582 528 q 635 644 611 578 q 659 722 650 686 l 703 700 l 798 652 q 817 603 817 633 q 810 556 817 586 q 740 404 799 509 q 682 281 715 335 q 608 185 648 227 q 514 109 568 143 q 401 50 460 75 q 263 0 342 24 q 157 475 177 376 l 65 475 q 72 600 72 536 q 65 712 72 660 l 90 712 l 62 814 q 35 861 35 825 z "},"ת":{"ha":821,"x_min":54,"x_max":779,"o":"m 54 0 l 84 237 l 262 237 l 163 475 l 68 475 q 80 582 80 518 q 66 712 80 666 l 779 712 l 779 475 l 691 475 q 712 425 695 465 q 733 373 728 385 q 749 327 737 360 q 764 274 760 294 q 771 223 768 254 q 775 163 775 193 q 749 65 775 113 q 671 -16 723 18 l 604 475 l 245 475 q 293 373 260 441 q 343 259 327 304 q 369 152 359 214 q 372 134 372 144 q 347 70 372 102 q 294 18 321 37 q 253 0 267 0 l 54 0 z "}," ":{"ha":764,"x_min":0,"x_max":0,"o":""}," ":{"ha":1529,"x_min":0,"x_max":0,"o":""}," ":{"ha":764,"x_min":0,"x_max":0,"o":""}," ":{"ha":1529,"x_min":0,"x_max":0,"o":""}," ":{"ha":509,"x_min":0,"x_max":0,"o":""}," ":{"ha":382,"x_min":0,"x_max":0,"o":""}," ":{"ha":254,"x_min":0,"x_max":0,"o":""}," ":{"ha":254,"x_min":0,"x_max":0,"o":""}," ":{"ha":191,"x_min":0,"x_max":0,"o":""}," ":{"ha":305,"x_min":0,"x_max":0,"o":""}," ":{"ha":85,"x_min":0,"x_max":0,"o":""},"‐":{"ha":534,"x_min":68,"x_max":467,"o":"m 68 334 q 90 398 68 353 q 131 452 113 444 q 152 458 151 458 l 434 458 q 451 454 445 456 q 462 445 456 452 q 467 427 467 438 q 460 393 467 414 q 420 313 453 368 l 395 294 l 105 294 q 80 299 88 294 q 70 313 71 305 q 68 334 68 320 z "},"‑":{"ha":534,"x_min":68,"x_max":467,"o":"m 68 334 q 90 398 68 353 q 131 452 113 444 q 152 458 151 458 l 434 458 q 451 454 445 456 q 462 445 456 452 q 467 427 467 438 q 460 393 467 414 q 420 313 453 368 l 395 294 l 105 294 q 80 299 88 294 q 70 313 71 305 q 68 334 68 320 z "},"‒":{"ha":534,"x_min":68,"x_max":467,"o":"m 68 334 q 90 398 68 353 q 131 452 113 444 q 152 458 151 458 l 434 458 q 451 454 445 456 q 462 445 456 452 q 467 427 467 438 q 460 393 467 414 q 420 313 453 368 l 395 294 l 105 294 q 80 299 88 294 q 70 313 71 305 q 68 334 68 320 z "},"–":{"ha":829,"x_min":68,"x_max":762,"o":"m 68 334 q 107 398 68 353 q 178 452 146 444 q 214 458 213 458 l 705 458 q 733 454 724 456 q 753 445 743 452 q 762 427 762 438 q 751 393 762 414 q 680 313 737 368 l 637 294 l 133 294 q 89 299 103 294 q 71 313 74 305 q 68 334 68 320 z "},"—":{"ha":1523,"x_min":68,"x_max":1457,"o":"m 68 334 q 145 398 68 353 q 287 452 223 444 q 360 458 358 458 l 1341 458 q 1399 454 1379 456 q 1438 445 1419 452 q 1457 427 1457 438 q 1433 393 1457 414 q 1292 313 1407 368 l 1206 294 l 197 294 q 109 299 138 294 q 74 313 79 305 q 68 334 68 320 z "}," ":{"ha":305,"x_min":0,"x_max":0,"o":""}," ":{"ha":382,"x_min":0,"x_max":0,"o":""},"":{"ha":339,"x_min":0,"x_max":0,"o":"m 0 0 z "}}}
